   
<svg  xmlns="http://www.w3.org/2000/svg" id="consultation" viewBox="0 0 64 64"><path d="m60 28h-1v20a5.006 5.006 0 0 1 -5 5h-22.757l-.243.242v.758a3 3 0 0 0 3 3h15.586l5.707 5.707a1 1 0 0 0 1.707-.707v-5h3a3 3 0 0 0 3-3v-23a3 3 0 0 0 -3-3z" fill="#c4a2fc"></path><path d="m23 51v5a1 1 0 0 0 1.707.707l5.707-5.707h23.586a3 3 0 0 0 3-3v-26a3 3 0 0 0 -3-3h-34a3 3 0 0 0 -3 3v26a3 3 0 0 0 3 3zm1-26h26a1 1 0 0 1 0 2h-26a1 1 0 0 1 0-2zm0 6h26a1 1 0 0 1 0 2h-26a1 1 0 0 1 0-2zm0 6h26a1 1 0 0 1 0 2h-26a1 1 0 0 1 0-2zm0 6h14a1 1 0 0 1 0 2h-14a1 1 0 1 1 0-2z" fill="#c4a2fc"></path><g fill="#151a6a"><path d="m48 43h-3.841a10.053 10.053 0 0 0 -5.244-5.2 7 7 0 1 0 -7.83 0 10.053 10.053 0 0 0 -5.244 5.2h-1.841v-2a10.013 10.013 0 0 0 -6.085-9.2 6.987 6.987 0 0 0 2.935-7.236l3.564-3.564h5.586a3 3 0 0 0 3-3v-14a3 3 0 0 0 -3-3h-26a3 3 0 0 0 -3 3v14a3 3 0 0 0 3 3h5.111a6.987 6.987 0 0 0 .974 10.8 10.013 10.013 0 0 0 -6.085 9.2v2a3 3 0 0 0 -3 3v2a3 3 0 0 0 3 3h44a3 3 0 0 0 3-3v-2a3 3 0 0 0 -3-3zm-18-11a5 5 0 1 1 5 5 5.006 5.006 0 0 1 -5-5zm5 7a8.009 8.009 0 0 1 8 8v2h-16v-2a8.009 8.009 0 0 1 8-8zm-31-20a1 1 0 0 1 -1-1v-14a1 1 0 0 1 1-1h26a1 1 0 0 1 1 1v14a1 1 0 0 1 -1 1h-6a1 1 0 0 0 -.707.293l-3.228 3.228a7 7 0 0 0 -6.065-3.521zm5 7a5 5 0 1 1 5 5 5.006 5.006 0 0 1 -5-5zm-3 15a8 8 0 0 1 16 0v2h-16zm-3 7v-2a1 1 0 0 1 1-1h21.2a9.983 9.983 0 0 0 -.2 2v2h-21a1 1 0 0 1 -1-1zm46 0a1 1 0 0 1 -1 1h-3v-2a9.983 9.983 0 0 0 -.2-2h3.2a1 1 0 0 1 1 1z"></path><path d="m8 9h18a1 1 0 0 0 0-2h-18a1 1 0 0 0 0 2z"></path><path d="m27 14a1 1 0 0 0 -1-1h-18a1 1 0 0 0 0 2h18a1 1 0 0 0 1-1z"></path></g></svg>
            